<?xml version="1.0" encoding="UTF-8" standalone="no"?>
<!-- Generator: Adobe Illustrator 15.0.2, SVG Export Plug-In . SVG Version: 6.00 Build 0)  -->

<svg
   xmlns:dc="http://purl.org/dc/elements/1.1/"
   xmlns:cc="http://creativecommons.org/ns#"
   xmlns:rdf="http://www.w3.org/1999/02/22-rdf-syntax-ns#"
   xmlns:svg="http://www.w3.org/2000/svg"
   xmlns="http://www.w3.org/2000/svg"
   xmlns:sodipodi="http://sodipodi.sourceforge.net/DTD/sodipodi-0.dtd"
   xmlns:inkscape="http://www.inkscape.org/namespaces/inkscape"
   version="1.1"
   id="LIVEWEB"
   x="0px"
   y="0px"
   width="747.28467"
   height="205.095"
   viewBox="0 0 747.28465 205.09501"
   enable-background="new 0 0 882.343 340.158"
   xml:space="preserve"
   inkscape:version="0.48.4 r9939"
   sodipodi:docname="Ajax.svg"><metadata
   id="metadata29"><rdf:RDF><cc:Work
       rdf:about=""><dc:format>image/svg+xml</dc:format><dc:type
         rdf:resource="http://purl.org/dc/dcmitype/StillImage" /></cc:Work></rdf:RDF></metadata><defs
   id="defs27" /><sodipodi:namedview
   pagecolor="#ffffff"
   bordercolor="#666666"
   borderopacity="1"
   objecttolerance="10"
   gridtolerance="10"
   guidetolerance="10"
   inkscape:pageopacity="0"
   inkscape:pageshadow="2"
   inkscape:window-width="1280"
   inkscape:window-height="1001"
   id="namedview25"
   showgrid="false"
   fit-margin-top="0.5"
   fit-margin-right="0.5"
   fit-margin-bottom="0.5"
   fit-margin-left="0.5"
   inkscape:zoom="0.71627472"
   inkscape:cx="338.91037"
   inkscape:cy="70.710058"
   inkscape:window-x="-8"
   inkscape:window-y="-8"
   inkscape:window-maximized="1"
   inkscape:current-layer="LIVEWEB" />

<path
   d="m 38.391649,75.039 c 14.595,0.043 32.563,3.992 32.563,18.537 v 34.746 h -25.746 v -14.988 c -0.019,-0.043 -6.252,2.205 -11.038,3.68 -3.229,0.885 -5.668,2.707 -5.859,5.99 -0.253,2.773 2.888,5.318 2.888,5.318 H 5.9566494 c -0.035,0 -5.62000002,-2.014 -5.45300002,-8.043 0.52100002,-11.482 9.46800002,-15.715 31.48499962,-18.252 11.859,-1.469 13.2,-2.611 13.219,-5.588 -0.019,-2.449 -1.462,-5.215 -8.181,-5.32 -9.685,0.008 -9.008,6.561 -8.998,6.541 H 3.3686494 c -0.054,-0.009 0.238,-22.595 35.0229996,-22.621 m 78.665001,0.549 c -8.563,1.248 -11.569,8.33 -11.58,8.311 V 76.54 H 81.491649 v 51.783 H 107.65965 V 103.52 c 0.025,-4.383 1.255,-6.344 2.855,-7.902 1.808,-1.859 4.977,-3.154 8.448,-3.137 h 7.358 V 76.539 c 0.001,0 -3.778,-1.759 -9.264,-0.951 m 52.195,-11.31 h -25.893 V 76.54 h -10.765 v 15.941 h 10.765 v 21.125 c 0.024,4.555 -0.069,8.271 3.272,11.854 2.926,2.99 6.751,2.852 11.313,2.863 h 11.308 V 92.481 h 15.536 V 76.539 h -15.536 V 64.278 z m 53.843,11.17 c 43.423,0.48 36.401,39.738 36.384,39.795 h -46.342 v 13.08 h -18.937 c 0.059,0 -7.775,-7.041 -7.635,-20.984 0.284,-32.477 35.162,-31.917 36.53,-31.891 m 11.301,26.712 c -0.023,-0.047 1.087,-10.617 -11.301,-10.635 -11.95,-0.057 -10.638,10.588 -10.638,10.635 h 21.939"
   id="path5"
   style="fill:#fa481c;stroke:none"
   inkscape:connector-curvature="0" />
<g
   id="g7"
   transform="translate(-67.527351,-67.531)">
	<path
   d="m 712.262,68.031 c -56.273,0 -102.045,45.787 -102.045,102.057 0,56.27 45.771,102.038 102.045,102.038 56.271,0 102.05,-45.769 102.05,-102.038 0,-56.269 -45.779,-102.057 -102.05,-102.057 z m 0,193.032 c -28.186,0 -53.411,-12.883 -70.113,-33.063 h 38.957 V 216.133 H 633.93 c -7.081,-11.987 -11.445,-25.689 -12.367,-40.357 h 51.293 V 163.9 h -51.271 c 0.969,-14.262 5.22,-27.646 12.037,-39.369 H 680.28 V 112.66 h -38.519 c 16.696,-20.463 42.079,-33.566 70.501,-33.566 50.173,0 90.989,40.81 90.989,90.994 0,50.16 -40.816,90.975 -90.989,90.975 z"
   id="path9"
   style="fill:#7cb0ff;stroke:none"
   inkscape:connector-curvature="0" />
	<g
   id="g11">
		<g
   id="g13">
			<path
   d="m 384.484,152.178 h -29.726 v 14.266 h 26.362 v 8.363 h -26.362 v 21.284 h -9.186 v -52.278 h 38.911 v 8.365 z"
   id="path15"
   style="fill:#7cb0ff;stroke:none"
   inkscape:connector-curvature="0" />
			<path
   d="m 438.493,173.46 c 0,15.608 -8.813,23.452 -22.482,23.452 -13.591,0 -22.255,-7.844 -22.255,-23.004 v -30.096 h 9.188 v 29.723 c 0,9.711 5.003,14.938 13.218,14.938 8.142,0 13.146,-4.928 13.146,-14.564 v -30.096 h 9.187 v 29.647 z"
   id="path17"
   style="fill:#7cb0ff;stroke:none"
   inkscape:connector-curvature="0" />
			<path
   d="m 473.236,196.091 h -9.264 v -43.766 h -16.578 v -8.513 h 42.421 v 8.513 h -16.579 v 43.766 z"
   id="path19"
   style="fill:#7cb0ff;stroke:none"
   inkscape:connector-curvature="0" />
			<path
   d="m 543.451,173.46 c 0,15.608 -8.814,23.452 -22.48,23.452 -13.592,0 -22.256,-7.844 -22.256,-23.004 v -30.096 h 9.187 v 29.723 c 0,9.711 5.003,14.938 13.218,14.938 8.143,0 13.146,-4.928 13.146,-14.564 v -30.096 h 9.187 v 29.647 z"
   id="path21"
   style="fill:#7cb0ff;stroke:none"
   inkscape:connector-curvature="0" />
			<path
   d="M 589.617,196.091 576.773,177.866 H 565.27 v 18.225 h -9.186 v -52.278 h 23.302 c 12.023,0 19.418,6.348 19.418,16.577 0,8.665 -5.153,13.892 -12.472,15.908 l 14.116,19.793 H 589.617 z M 578.64,152.178 h -13.369 v 17.551 h 13.443 c 6.572,0 10.753,-3.438 10.753,-8.813 0,-5.754 -4.03,-8.738 -10.827,-8.738 z"
   id="path23"
   style="fill:#7cb0ff;stroke:none"
   inkscape:connector-curvature="0" />
		</g>
	</g>
</g>
</svg>